<?xml version="1.0" encoding="UTF-8" standalone="no"?>
<svg
   viewBox="0 0 480 500"
   width="480"
   height="500"
   role="img"
   aria-label="Starý Lískovec ON"
   version="1.1"
   id="svg3"
   sodipodi:docname="logo-slon.svg"
   inkscape:version="1.4.3 (0d15f75, 2025-12-25)"
   xmlns:inkscape="http://www.inkscape.org/namespaces/inkscape"
   xmlns:sodipodi="http://sodipodi.sourceforge.net/DTD/sodipodi-0.dtd"
   xmlns="http://www.w3.org/2000/svg"
   xmlns:svg="http://www.w3.org/2000/svg">
  <sodipodi:namedview
     id="namedview3"
     pagecolor="#ffffff"
     bordercolor="#000000"
     borderopacity="0.25"
     inkscape:showpageshadow="2"
     inkscape:pageopacity="0.0"
     inkscape:pagecheckerboard="0"
     inkscape:deskcolor="#d1d1d1"
     inkscape:zoom="2.35"
     inkscape:cx="250"
     inkscape:cy="250"
     inkscape:window-width="3440"
     inkscape:window-height="1377"
     inkscape:window-x="-8"
     inkscape:window-y="-8"
     inkscape:window-maximized="1"
     inkscape:current-layer="svg3" />
  <defs
     id="defs1">
    <style
       id="style1"><![CDATA[
      @import url('https://fonts.googleapis.com/css2?family=Bebas+Neue&display=swap');
    ]]></style>
  </defs>
  <!-- Background -->
  <path
     id="rect1"
     style="fill:#0a0a0a;stroke-width:0.979796"
     d="M 26.88,0 H 453.12 C 468.01151,0 480,12.488 480,28 v 444 c 0,15.512 -11.98849,28 -26.88,28 H 26.88 C 11.98848,500 0,487.512 0,472 V 28 C 0,12.488 11.98848,0 26.88,0 Z" />
  <!-- STARÝ (violet-soft) -->
  <path
     d="m 89.093457,51.894324 h -19.09179 v -5.859375 q 0,-4.101563 -0.73243,-5.22461 -0.73242,-1.123046 -2.4414,-1.123046 -1.85547,0 -2.83203,1.513671 -0.92774,1.513672 -0.92774,4.589844 0,3.955078 1.07422,5.957031 1.02539,2.001954 5.81055,4.833985 13.7207,8.154297 17.28515,13.378906 3.56446,5.224609 3.56446,16.845703 0,8.447266 -2.00196,12.451174 -1.95312,4.003893 -7.61718,6.738273 -5.66407,2.68555 -13.1836,2.68555 -8.25195,0 -14.11132,-3.125 -5.81055,-3.125 -7.61719,-7.958983 -1.80664,-4.833983 -1.80664,-13.720701 v -5.175782 h 19.09179 v 9.619141 q 0,4.443359 0.78125,5.712891 0.83008,1.269531 2.88086,1.269531 2.05078,0 3.02735,-1.611328 1.02539,-1.611328 1.02539,-4.785156 0,-6.982422 -1.9043,-9.13086 -1.95312,-2.148437 -9.61914,-7.177734 -7.66602,-5.078125 -10.15625,-7.373047 -2.49023,-2.294922 -4.15039,-6.347656 -1.61133,-4.052735 -1.61133,-10.351563 0,-9.082031 2.29492,-13.28125 2.34375,-4.199219 7.51953,-6.542969 5.17579,-2.392578 12.5,-2.392578 8.00782,0 13.62305,2.587891 5.66406,2.587891 7.4707,6.542969 1.85547,3.90625 1.85547,13.330078 z M 141.65401,27.968543 V 43.788855 H 129.44698 V 107.02127 H 108.89034 V 43.788855 H 96.732137 V 27.968543 Z m 39.18164,0 11.76758,79.052727 h -21.04492 l -1.02539,-14.208977 h -7.37305 l -1.2207,14.208977 H 140.6501 l 10.44922,-79.052727 z m -10.88867,50.830078 q -1.5625,-13.427735 -3.125,-33.154297 -3.125,22.65625 -3.90625,33.154297 z m 29.17187,-50.830078 h 14.55079 q 14.55078,0 19.67773,1.123046 5.17578,1.123047 8.39844,5.761719 3.27148,4.589844 3.27148,14.697266 0,9.228515 -2.29492,12.402344 -2.29492,3.173828 -9.0332,3.808593 6.10351,1.513672 8.20312,4.052735 2.09961,2.539062 2.58789,4.6875 0.53711,2.099609 0.53711,11.669922 v 20.849602 h -19.0918 V 80.751746 q 0,-6.347657 -1.02539,-7.861328 -0.97656,-1.513672 -5.22461,-1.513672 v 35.644524 h -20.55664 z m 20.55664,13.52539 v 17.578125 q 3.4668,0 4.83399,-0.927734 1.41601,-0.976563 1.41601,-6.201172 v -4.345703 q 0,-3.759766 -1.36718,-4.931641 -1.31836,-1.171875 -4.88282,-1.171875 z M 299.7751,27.968543 284.78487,78.407996 V 107.02127 H 265.7419 V 78.407996 L 251.28878,27.968543 h 18.89648 q 4.44336,23.095703 4.98047,31.103515 1.70898,-12.646484 5.71289,-31.103515 z m -7.56836,-15.722657 -16.06445,13.232422 h -9.91211 l 8.59375,-13.232422 z"
     id="text1"
     style="font-size:100px;font-family:'Bebas Neue', Impact, 'Arial Narrow', sans-serif;letter-spacing:3;text-anchor:middle;fill:#b786c8"
     aria-label="STARÝ" />
  <!-- LÍSKOVEC (yellow) -->
  <path
     d="m 64.386427,126.79833 v 63.23242 h 12.5 v 15.82031 h -33.05664 v -79.05273 z m 39.037113,0 v 79.05273 H 82.866897 v -79.05273 z m 6.39648,-15.72266 -16.064453,13.23242 h -9.91211 l 8.59375,-13.23242 z m 46.41016,39.64844 h -19.0918 v -5.85938 q 0,-4.10156 -0.73242,-5.22461 -0.73242,-1.12304 -2.44141,-1.12304 -1.85546,0 -2.83203,1.51367 -0.92773,1.51367 -0.92773,4.58984 0,3.95508 1.07422,5.95703 1.02539,2.00196 5.81054,4.83399 13.72071,8.15429 17.28516,13.3789 3.56445,5.22461 3.56445,16.84571 0,8.44726 -2.00195,12.45117 -1.95312,4.0039 -7.61719,6.73828 -5.66406,2.68555 -13.18359,2.68555 -8.25195,0 -14.11133,-3.125 -5.81055,-3.125 -7.61719,-7.95899 -1.80664,-4.83398 -1.80664,-13.7207 v -5.17578 h 19.0918 v 9.61914 q 0,4.44336 0.78125,5.71289 0.83008,1.26953 2.88086,1.26953 2.05078,0 3.02734,-1.61133 1.02539,-1.61133 1.02539,-4.78515 0,-6.98243 -1.90429,-9.13086 -1.95313,-2.14844 -9.61914,-7.17774 -7.66602,-5.07812 -10.15625,-7.37305 -2.49024,-2.29492 -4.15039,-6.34765 -1.61133,-4.05274 -1.61133,-10.35156 0,-9.08204 2.29492,-13.28125 2.34375,-4.19922 7.51953,-6.54297 5.17578,-2.39258 12.5,-2.39258 8.00781,0 13.62305,2.58789 5.66406,2.58789 7.4707,6.54297 1.85547,3.90625 1.85547,13.33008 z m 58.12891,-23.92578 -11.76758,35.69335 12.89062,43.35938 H 194.2419 l -8.30078,-33.88672 v 33.88672 h -20.55664 v -79.05273 h 20.55664 v 30.71289 l 9.13086,-30.71289 z m 50.85351,46.28906 q 0,11.91406 -0.58594,16.89453 -0.53711,4.93164 -3.51562,9.0332 -2.92969,4.10156 -7.95899,6.29883 -5.02929,2.19727 -11.71875,2.19727 -6.34765,0 -11.42578,-2.05079 -5.02929,-2.0996 -8.10547,-6.25 -3.07617,-4.15039 -3.6621,-9.0332 -0.58594,-4.88281 -0.58594,-17.08984 V 159.562 q 0,-11.91407 0.53711,-16.84571 0.58593,-4.98046 3.51562,-9.08203 2.97852,-4.10156 8.00781,-6.29882 5.0293,-2.19727 11.71875,-2.19727 6.34766,0 11.37696,2.09961 5.07812,2.05078 8.15429,6.20117 3.07618,4.15039 3.66211,9.0332 0.58594,4.88282 0.58594,17.08985 z m -20.55664,-25.97656 q 0,-5.51758 -0.63476,-7.03125 -0.58594,-1.5625 -2.49024,-1.5625 -1.61133,0 -2.49023,1.26953 -0.83008,1.2207 -0.83008,7.32422 v 36.91406 q 0,6.88476 0.53711,8.49609 0.58594,1.61133 2.63672,1.61133 2.09961,0 2.68554,-1.85547 0.58594,-1.85547 0.58594,-8.83789 z m 78.05078,-20.3125 -10.44922,79.05273 h -31.20117 l -11.86523,-79.05273 h 21.67968 q 3.75977,32.66601 5.3711,55.2246 1.61133,-22.80273 3.36914,-40.52734 l 1.41601,-14.69726 z m 4.51563,0 h 34.27734 v 15.82031 h -13.7207 v 14.99023 h 12.84179 v 15.03906 h -12.84179 v 17.38282 h 15.08789 v 15.82031 h -35.64453 z m 90.55078,34.47265 h -20.55664 v -13.76953 q 0,-6.00586 -0.6836,-7.4707 -0.63476,-1.51367 -2.88086,-1.51367 -2.53906,0 -3.22265,1.80664 -0.6836,1.80664 -0.6836,7.8125 v 36.71875 q 0,5.76171 0.6836,7.51953 0.68359,1.75781 3.07617,1.75781 2.29492,0 2.97852,-1.75781 0.73242,-1.75782 0.73242,-8.25196 v -9.91211 h 20.55664 v 3.07618 q 0,12.25586 -1.75781,17.38281 -1.70899,5.12695 -7.66602,8.98437 -5.9082,3.85743 -14.59961,3.85743 -9.0332,0 -14.89258,-3.27149 -5.85937,-3.27148 -7.76367,-9.0332 -1.9043,-5.81055 -1.9043,-17.43164 v -23.09571 q 0,-8.54492 0.58594,-12.79296 0.58594,-4.29688 3.4668,-8.25196 2.92969,-3.95508 8.05664,-6.20117 5.17578,-2.29492 11.86523,-2.29492 9.08203,0 14.99024,3.51562 5.9082,3.51563 7.76367,8.78907 1.85547,5.22461 1.85547,16.30859 z"
     id="text2"
     style="font-size:100px;font-family:'Bebas Neue', Impact, 'Arial Narrow', sans-serif;letter-spacing:1;text-anchor:middle;fill:#f2c500"
     aria-label="LÍSKOVEC" />
  <!-- ON (green) -->
  <path
     d="m 279.91647,327.62227 q 0,27.40235 -1.34766,38.85743 -1.23535,11.34277 -8.08593,20.77636 -6.73828,9.4336 -18.30567,14.48731 -11.56738,5.05371 -26.95312,5.05371 -14.59961,0 -26.2793,-4.7168 -11.56738,-4.8291 -18.64258,-14.375 -7.07519,-9.5459 -8.42285,-20.77636 -1.34765,-11.23047 -1.34765,-39.30665 v -31.10839 q 0,-27.40235 1.23535,-38.74512 1.34765,-11.45508 8.08593,-20.88867 6.85059,-9.4336 18.41797,-14.48731 11.56739,-5.05371 26.95313,-5.05371 14.59961,0 26.16699,4.8291 11.67969,4.7168 18.75488,14.2627 7.0752,9.5459 8.42285,20.77637 1.34766,11.23046 1.34766,39.30664 z M 232.6362,267.87618 q 0,-12.69043 -1.45996,-16.17187 -1.34766,-3.59375 -5.72754,-3.59375 -3.70606,0 -5.72754,2.91992 -1.90918,2.80761 -1.90918,16.8457 v 84.90234 q 0,15.83497 1.23535,19.54102 1.34766,3.70605 6.06445,3.70605 4.82911,0 6.17676,-4.26757 1.34766,-4.26758 1.34766,-20.32715 z m 180.47851,-46.71875 v 181.82129 h -41.44043 l -24.59472,-82.65625 v 82.65625 H 307.54831 V 221.15743 h 39.53125 l 26.5039,81.87012 v -81.87012 z"
     id="text3"
     style="font-size:230px;font-family:'Bebas Neue', Impact, 'Arial Narrow', sans-serif;letter-spacing:10;text-anchor:middle;fill:#8fba47"
     aria-label="ON" />
  <!-- Toggle track -->
  <path
     id="rect3"
     style="fill:#2a2a2a"
     d="m 278.97872,413.74468 h 108 c 14.404,0 26,11.596 26,26 0,14.404 -11.596,26 -26,26 h -108 c -14.404,0 -26,-11.596 -26,-26 0,-14.404 11.596,-26 26,-26 z" />
  <!-- Toggle dot — right side = ON -->
  <path
     id="circle3"
     style="fill:#8fba47"
     d="m 406.55319,440.17021 a 20,20 0 0 1 -20,20 20,20 0 0 1 -20,-20 20,20 0 0 1 20,-20 20,20 0 0 1 20,20 z" />
</svg>
