<?xml version="1.0" encoding="UTF-8" standalone="no"?>
<svg
   viewBox="0 0 560 230"
   width="560"
   height="230"
   role="img"
   aria-label="Starý Lískovec ON"
   version="1.1"
   id="svg3"
   sodipodi:docname="logo-slon-podelne.svg"
   inkscape:version="1.4.3 (0d15f75, 2025-12-25)"
   xmlns:inkscape="http://www.inkscape.org/namespaces/inkscape"
   xmlns:sodipodi="http://sodipodi.sourceforge.net/DTD/sodipodi-0.dtd"
   xmlns="http://www.w3.org/2000/svg"
   xmlns:svg="http://www.w3.org/2000/svg">
  <sodipodi:namedview
     id="namedview3"
     pagecolor="#ffffff"
     bordercolor="#000000"
     borderopacity="0.25"
     inkscape:showpageshadow="2"
     inkscape:pageopacity="0.0"
     inkscape:pagecheckerboard="0"
     inkscape:deskcolor="#d1d1d1"
     inkscape:zoom="3.4273881"
     inkscape:cx="314.08757"
     inkscape:cy="101.68093"
     inkscape:window-width="3440"
     inkscape:window-height="1377"
     inkscape:window-x="-8"
     inkscape:window-y="-8"
     inkscape:window-maximized="1"
     inkscape:current-layer="svg3" />
  <defs
     id="defs1">
    <style
       id="style1"><![CDATA[
      @import url('https://fonts.googleapis.com/css2?family=Barlow+Condensed:wght@900&display=swap');
    ]]></style>
  </defs>
  <path
     id="rect1"
     style="fill:#0a0a0a;stroke-width:0.907485"
     d="M 23.642359,0 H 537.52471 c 12.77459,0 23.05882,10.284236 23.05882,23.058825 V 206.94118 C 560.58353,219.71576 550.2993,230 537.52471,230 H 23.642359 C 10.86777,230 0.58353472,219.71576 0.58353472,206.94118 V 23.058825 C 0.58353472,10.284236 10.86777,0 23.642359,0 Z" />
  <!-- Left block: STARÝ top + LÍSKOVEC bottom, both left-aligned at x=28.
       LÍSKOVEC is the wider line and sets the block's right edge.
       The toggle sits on the STARÝ row so both rows share the same right edge. -->
  <!-- STARÝ — top row -->
  <path
     d="m 45.92,103.64 q -4.64,0 -8.16,-1.84 Q 34.24,99.96 32.32,96.68 30.4,93.32 30.4,89 v -2.32 q 0,-0.4 0.24,-0.64 0.32,-0.32 0.72,-0.32 h 9.2 q 0.4,0 0.64,0.32 0.32,0.24 0.32,0.64 v 1.76 q 0,2.48 1.28,4 1.28,1.52 3.2,1.52 1.92,0 3.2,-1.44 1.28,-1.44 1.28,-3.76 0,-2.4 -1.6,-4.08 -1.6,-1.76 -6.24,-5.12 -4,-2.88 -6.48,-5.12 -2.48,-2.24 -4.24,-5.52 -1.76,-3.28 -1.76,-7.6 0,-6.8 4.24,-10.88 4.24,-4.08 11.2,-4.08 7.04,0 11.28,4.24 4.32,4.24 4.32,11.12 v 1.92 q 0,0.4 -0.32,0.72 -0.24,0.24 -0.64,0.24 h -9.2 q -0.4,0 -0.72,-0.24 -0.24,-0.32 -0.24,-0.72 v -2.16 q 0,-2.48 -1.28,-3.92 -1.2,-1.52 -3.2,-1.52 -1.92,0 -3.12,1.44 -1.2,1.36 -1.2,3.84 0,2.4 1.52,4.24 1.52,1.84 6,5.12 4.96,3.68 7.44,6 2.56,2.24 3.92,5.04 1.44,2.72 1.44,6.56 0,7.04 -4.32,11.2 -4.32,4.16 -11.36,4.16 z M 100.59998,47 q 0.4,0 0.64,0.32 0.32,0.24 0.32,0.64 v 7.76 q 0,0.4 -0.32,0.72 -0.24,0.24 -0.64,0.24 H 90.599978 q -0.4,0 -0.4,0.4 v 44.96 q 0,0.4 -0.32,0.72 -0.24,0.24 -0.64,0.24 h -9.36 q -0.4,0 -0.72,-0.24 -0.24,-0.32 -0.24,-0.72 V 57.08 q 0,-0.4 -0.4,-0.4 h -9.6 q -0.4,0 -0.72,-0.24 -0.24,-0.32 -0.24,-0.72 v -7.76 q 0,-0.4 0.24,-0.64 0.32,-0.32 0.72,-0.32 z m 28.52001,56 q -0.96,0 -1.04,-0.88 l -1.28,-7.68 q 0,-0.4 -0.48,-0.4 h -10.16 q -0.48,0 -0.48,0.4 l -1.28,7.68 q -0.08,0.88 -1.04,0.88 h -9.36 q -1.04,0 -0.8,-1.04 l 11.76,-54.08 q 0.16,-0.88 1.04,-0.88 h 10.8 q 0.88,0 1.04,0.88 l 11.68,54.08 0.08,0.32 q 0,0.72 -0.88,0.72 z m -11.84,-18.08 q 0,0.4 0.32,0.4 h 7.2 q 0.4,0 0.32,-0.4 l -3.76,-21.84 q -0.08,-0.24 -0.24,-0.24 -0.16,0 -0.24,0.24 z M 169.24001,103 q -0.88,0 -1.12,-0.8 l -6.16,-22.08 q -0.16,-0.32 -0.4,-0.32 h -2.72 q -0.4,0 -0.4,0.4 v 21.84 q 0,0.4 -0.32,0.72 -0.24,0.24 -0.64,0.24 h -9.36 q -0.4,0 -0.72,-0.24 -0.24,-0.32 -0.24,-0.72 V 47.96 q 0,-0.4 0.24,-0.64 0.32,-0.32 0.72,-0.32 h 16.16 q 4.4,0 7.84,2.16 3.44,2.08 5.28,5.92 1.92,3.84 1.92,8.8 0,4.72 -1.84,8.32 -1.76,3.6 -4.96,5.6 -0.16,0.08 -0.24,0.24 -0.08,0.08 0,0.24 l 7.36,23.6 0.08,0.32 q 0,0.8 -0.88,0.8 z m -10.4,-46.32 q -0.4,0 -0.4,0.4 v 13.68 q 0,0.4 0.4,0.4 h 3.6 q 2.48,0 4,-1.92 1.6,-2 1.6,-5.28 0,-3.36 -1.6,-5.28 -1.52,-2 -4,-2 z m 37.48007,46.24 q -0.4,0 -0.72,-0.24 -0.24,-0.32 -0.24,-0.72 v -20.8 l -0.08,-0.48 -11.2,-32.56 q -0.08,-0.16 -0.08,-0.4 0,-0.72 0.88,-0.72 h 9.84 q 0.88,0 1.12,0.8 l 4.96,19.12 q 0.08,0.24 0.24,0.24 0.16,0 0.24,-0.24 l 4.96,-19.12 q 0.24,-0.8 1.12,-0.8 h 9.84 q 0.48,0 0.72,0.32 0.24,0.24 0.08,0.8 l -11.28,32.56 -0.08,0.48 v 20.8 q 0,0.4 -0.32,0.72 -0.24,0.24 -0.64,0.24 z m 0.4,-60.88 q -0.56,0 -0.8,-0.32 -0.24,-0.32 0.08,-0.8 l 4.72,-8.16 q 0.32,-0.64 1.2,-0.64 h 7.44 q 0.8,0 0.8,0.56 0,0.24 -0.24,0.64 l -6.16,8.16 q -0.48,0.56 -1.12,0.56 z"
     id="text1"
     style="font-weight:bold;font-stretch:condensed;font-size:80px;font-family:'Barlow Condensed', 'Arial Narrow', sans-serif;-inkscape-font-specification:'Barlow Condensed, Arial Narrow, sans-serif, Bold Condensed';letter-spacing:3;fill:#b786c8"
     aria-label="STARÝ" />
  <!-- LÍSKOVEC — bottom row (wider, sets right edge ~x=320) -->
  <path
     d="m 31.12,193 q -0.4,0 -0.72,-0.24 -0.24,-0.32 -0.24,-0.72 v -54.08 q 0,-0.4 0.24,-0.64 0.32,-0.32 0.72,-0.32 h 9.36 q 0.4,0 0.64,0.32 0.32,0.24 0.32,0.64 v 44.96 q 0,0.4 0.4,0.4 h 16.8 q 0.4,0 0.64,0.32 0.32,0.24 0.32,0.64 v 7.76 q 0,0.4 -0.32,0.72 -0.24,0.24 -0.64,0.24 z m 35.080048,0 q -0.4,0 -0.72,-0.24 -0.24,-0.32 -0.24,-0.72 v -54.08 q 0,-0.4 0.24,-0.64 0.32,-0.32 0.72,-0.32 h 9.36 q 0.4,0 0.64,0.32 0.32,0.24 0.32,0.64 v 54.08 q 0,0.4 -0.32,0.72 -0.24,0.24 -0.64,0.24 z m 0.32,-60.96 q -0.56,0 -0.8,-0.32 -0.24,-0.32 0.08,-0.8 l 4.72,-8.16 q 0.32,-0.64 1.2,-0.64 h 7.44 q 0.8,0 0.8,0.56 0,0.24 -0.24,0.64 l -6.16,8.16 q -0.48,0.56 -1.12,0.56 z m 32.519962,61.6 q -4.64,0 -8.16,-1.84 -3.519999,-1.84 -5.439999,-5.12 -1.92,-3.36 -1.92,-7.68 v -2.32 q 0,-0.4 0.24,-0.64 0.32,-0.32 0.72,-0.32 h 9.199999 q 0.4,0 0.64,0.32 0.32,0.24 0.32,0.64 v 1.76 q 0,2.48 1.28,4 1.28,1.52 3.2,1.52 1.92,0 3.2,-1.44 1.28,-1.44 1.28,-3.76 0,-2.4 -1.6,-4.08 -1.6,-1.76 -6.24,-5.12 -4,-2.88 -6.479999,-5.12 -2.48,-2.24 -4.24,-5.52 -1.76,-3.28 -1.76,-7.6 0,-6.8 4.24,-10.88 4.239999,-4.08 11.199999,-4.08 7.04,0 11.28,4.24 4.32,4.24 4.32,11.12 v 1.92 q 0,0.4 -0.32,0.72 -0.24,0.24 -0.64,0.24 h -9.2 q -0.4,0 -0.72,-0.24 -0.24,-0.32 -0.24,-0.72 v -2.16 q 0,-2.48 -1.28,-3.92 -1.2,-1.52 -3.2,-1.52 -1.92,0 -3.12,1.44 -1.2,1.36 -1.2,3.84 0,2.4 1.52,4.24 1.52,1.84 6,5.12 4.96,3.68 7.44,6 2.56,2.24 3.92,5.04 1.44,2.72 1.44,6.56 0,7.04 -4.32,11.2 -4.32,4.16 -11.36,4.16 z M 122.12003,193 q -0.4,0 -0.72,-0.24 -0.24,-0.32 -0.24,-0.72 v -54.08 q 0,-0.4 0.24,-0.64 0.32,-0.32 0.72,-0.32 h 9.36 q 0.4,0 0.64,0.32 0.32,0.24 0.32,0.64 v 20.16 q 0,0.32 0.16,0.4 0.24,0 0.32,-0.32 l 10.32,-20.48 q 0.4,-0.72 1.12,-0.72 h 9.92 q 0.56,0 0.72,0.32 0.24,0.24 0,0.8 l -11.84,23.04 q -0.08,0.32 -0.08,0.48 l 12.56,30.24 q 0.08,0.16 0.08,0.48 0,0.64 -0.8,0.64 h -10 q -0.88,0 -1.12,-0.72 l -8.32,-20.96 q -0.08,-0.24 -0.24,-0.16 -0.16,0 -0.32,0.16 l -2.32,4.16 q -0.16,0.32 -0.16,0.48 v 16.08 q 0,0.4 -0.32,0.72 -0.24,0.24 -0.64,0.24 z m 52.99995,0.64 q -7.36,0 -11.76,-4.32 -4.4,-4.32 -4.4,-11.52 v -25.6 q 0,-7.2 4.4,-11.52 4.4,-4.32 11.76,-4.32 7.36,0 11.76,4.32 4.48,4.32 4.48,11.52 v 25.6 q 0,7.2 -4.48,11.52 -4.4,4.32 -11.76,4.32 z m 0,-9.68 q 2.24,0 3.6,-1.52 1.36,-1.6 1.36,-4.16 v -26.56 q 0,-2.56 -1.36,-4.08 -1.36,-1.6 -3.6,-1.6 -2.24,0 -3.6,1.6 -1.28,1.52 -1.28,4.08 v 26.56 q 0,2.56 1.28,4.16 1.36,1.52 3.6,1.52 z m 34.20001,9.04 q -0.88,0 -1.04,-0.88 l -11.44,-54.08 -0.08,-0.32 q 0,-0.72 0.88,-0.72 h 10.32 q 0.96,0 1.04,0.88 l 5.52,35.2 q 0.08,0.32 0.24,0.32 0.16,0 0.24,-0.32 l 5.36,-35.2 q 0.08,-0.88 1.04,-0.88 h 10 q 1.04,0 0.8,1.04 l -11.52,54.08 q -0.16,0.88 -1.04,0.88 z m 58.60006,-47.28 q 0,0.4 -0.32,0.72 -0.24,0.24 -0.64,0.24 h -16.72 q -0.4,0 -0.4,0.4 v 12.64 q 0,0.4 0.4,0.4 h 9.6 q 0.4,0 0.64,0.32 0.32,0.24 0.32,0.64 v 7.76 q 0,0.4 -0.32,0.72 -0.24,0.24 -0.64,0.24 h -9.6 q -0.4,0 -0.4,0.4 v 12.72 q 0,0.4 0.4,0.4 h 16.72 q 0.4,0 0.64,0.32 0.32,0.24 0.32,0.64 v 7.76 q 0,0.4 -0.32,0.72 -0.24,0.24 -0.64,0.24 h -27.44 q -0.4,0 -0.72,-0.24 -0.24,-0.32 -0.24,-0.72 v -54.08 q 0,-0.4 0.24,-0.64 0.32,-0.32 0.72,-0.32 h 27.44 q 0.4,0 0.64,0.32 0.32,0.24 0.32,0.64 z m 21.79998,47.92 q -7.2,0 -11.6,-4.24 -4.32,-4.32 -4.32,-11.52 v -25.92 q 0,-7.12 4.32,-11.36 4.4,-4.24 11.6,-4.24 7.28,0 11.6,4.24 4.4,4.24 4.4,11.36 v 0.88 q 0,0.4 -0.32,0.72 -0.24,0.24 -0.64,0.24 l -9.36,0.4 q -0.96,0 -0.96,-0.88 v -2.08 q 0,-2.32 -1.28,-3.76 -1.28,-1.44 -3.44,-1.44 -2.08,0 -3.36,1.44 -1.28,1.44 -1.28,3.76 v 27.6 q 0,2.32 1.28,3.76 1.28,1.36 3.36,1.36 2.16,0 3.44,-1.36 1.28,-1.44 1.28,-3.76 v -2.16 q 0,-0.4 0.24,-0.64 0.32,-0.32 0.72,-0.32 l 9.36,0.4 q 0.4,0 0.64,0.32 0.32,0.24 0.32,0.64 v 0.8 q 0,7.2 -4.4,11.52 -4.4,4.24 -11.6,4.24 z"
     id="text2"
     style="font-weight:bold;font-stretch:condensed;font-size:80px;font-family:'Barlow Condensed', 'Arial Narrow', sans-serif;-inkscape-font-specification:'Barlow Condensed, Arial Narrow, sans-serif, Bold Condensed';letter-spacing:1;fill:#f2c500"
     aria-label="LÍSKOVEC" />
  <!-- Toggle on STARÝ row, right edge aligned to LÍSKOVEC (~x=320) -->
  <rect
     id="rect2"
     x="220.24"
     y="46"
     width="89.84"
     height="58"
     rx="29"
     style="fill:#2a2a2a;stroke:#8fba47;stroke-opacity:0.4;stroke-width:5" />
  <path
     id="circle2"
     style="fill:#8fba47"
     d="m 306.25688,75.28792 a 22,22 0 0 1 -22,22 22,22 0 0 1 -22,-22 22,22 0 0 1 22,-22 22,22 0 0 1 22,22 z" />
  <!-- ON — large, right side, vertically centred -->
  <path
     d="m 373.88416,195.7561 q -19.10803,0 -30.53131,-11.21559 -11.42328,-11.21558 -11.42328,-29.90822 V 88.169569 q 0,-18.69264 11.42328,-29.908224 11.42328,-11.215584 30.53131,-11.215584 19.10803,0 30.53131,11.215584 11.63098,11.215584 11.63098,29.908224 v 66.462721 q 0,18.69264 -11.63098,29.90822 -11.42328,11.21559 -30.53131,11.21559 z m 0,-25.13122 q 5.81549,0 9.34632,-3.94622 3.53083,-4.15392 3.53083,-10.8002 V 86.923393 q 0,-6.646272 -3.53083,-10.592496 -3.53083,-4.15392 -9.34632,-4.15392 -5.81549,0 -9.34632,4.15392 -3.32313,3.946224 -3.32313,10.592496 v 68.955067 q 0,6.64628 3.32313,10.8002 3.53083,3.94622 9.34632,3.94622 z M 499.60848,51.199681 q 0,-1.03848 0.62309,-1.661568 0.83079,-0.830784 1.86927,-0.830784 h 24.09273 q 1.03848,0 1.66157,0.830784 0.83078,0.623088 0.83078,1.661568 V 191.60218 q 0,1.03848 -0.83078,1.86926 -0.62309,0.62309 -1.66157,0.62309 H 498.7777 q -2.07696,0 -2.70005,-2.07696 l -25.7543,-80.37835 q -0.2077,-0.62309 -0.83079,-0.4154 -0.41539,0 -0.41539,0.62309 l 0.2077,79.75527 q 0,1.03848 -0.83079,1.86926 -0.62308,0.62309 -1.66156,0.62309 h -24.09274 q -1.03848,0 -1.86926,-0.62309 -0.62309,-0.83078 -0.62309,-1.86926 V 51.199681 q 0,-1.03848 0.62309,-1.661568 0.83078,-0.830784 1.86926,-0.830784 h 27.20818 q 2.07696,0 2.70004,2.07696 l 25.962,80.378351 q 0.2077,0.62309 0.62309,0.62309 0.62309,-0.2077 0.62309,-0.83079 z"
     id="text3"
     style="font-weight:bold;font-stretch:condensed;font-size:207.696px;font-family:'Barlow Condensed', 'Arial Narrow', sans-serif;-inkscape-font-specification:'Barlow Condensed, Arial Narrow, sans-serif, Bold Condensed';letter-spacing:7.96078;text-anchor:middle;fill:#8fba47;stroke-width:1.09314"
     transform="scale(1.0067681,0.9932774)"
     aria-label="ON" />
</svg>
